<svg width="20" height="20" viewBox="0 0 20 20" fill="none" xmlns="http://www.w3.org/2000/svg">
<path fill-rule="evenodd" clip-rule="evenodd" d="M14.8001 2.4001H7.3335C7.01524 2.4001 6.71001 2.52653 6.48497 2.75157C6.25992 2.97662 6.1335 3.28184 6.1335 3.6001V13.8668H9.46676C9.68768 13.8668 9.86677 14.0459 9.86677 14.2668V15.3334C9.86677 15.9346 10.1056 16.5111 10.5307 16.9362C10.9557 17.3613 11.5323 17.6001 12.1334 17.6001C12.7346 17.6001 13.3111 17.3613 13.7362 16.9362C14.1613 16.5111 14.4001 15.9346 14.4001 15.3334V4.66677V3.6001C14.4001 3.16487 14.542 2.74426 14.8001 2.4001ZM5.3335 13.8668V3.6001C5.3335 3.06967 5.54421 2.56096 5.91928 2.18589C6.29436 1.81081 6.80306 1.6001 7.3335 1.6001H16.4001H16.4002C16.401 1.6001 16.4019 1.6001 16.4028 1.6001C16.9322 1.6008 17.4399 1.81144 17.8143 2.18589C18.1894 2.56096 18.4001 3.06967 18.4001 3.6001V4.66677C18.4001 4.88768 18.221 5.06677 18.0001 5.06677H15.2001V15.3334C15.2001 16.1468 14.877 16.9268 14.3019 17.5019C13.7268 18.077 12.9468 18.4001 12.1334 18.4001H4.66676C4.26404 18.4001 3.86527 18.3208 3.4932 18.1667C3.12114 18.0126 2.78307 17.7867 2.4983 17.5019C1.92319 16.9268 1.6001 16.1468 1.6001 15.3334V14.2668C1.6001 14.0459 1.77918 13.8668 2.0001 13.8668H5.3335ZM16.4001 2.4001C16.0818 2.4001 15.7766 2.52653 15.5516 2.75157C15.3265 2.97662 15.2001 3.28184 15.2001 3.6001V4.26677H17.6001V3.6001C17.6001 3.28184 17.4737 2.97662 17.2486 2.75157C17.0236 2.52653 16.7184 2.4001 16.4001 2.4001ZM9.96497 17.5019C9.99857 17.5355 10.0329 17.5682 10.0678 17.6001H4.66676C4.3691 17.6001 4.07435 17.5415 3.79935 17.4276C3.52434 17.3137 3.27447 17.1467 3.06399 16.9362C2.63891 16.5111 2.4001 15.9346 2.4001 15.3334V14.6668L5.7335 14.6668L9.06676 14.6668V15.3334C9.06676 16.1468 9.38986 16.9268 9.96497 17.5019Z" fill="#202020"/>
<path d="M7.8667 11.0667H11.0667M7.8667 4.66675H12.1334H7.8667ZM7.8667 8.93341H12.1334H7.8667ZM7.8667 6.80008H11.0667H7.8667Z" stroke="#202020" stroke-width="0.8" stroke-miterlimit="10" stroke-linecap="round" stroke-linejoin="round"/>
</svg>
