<svg width="20" height="20" viewBox="0 0 20 20" fill="none" xmlns="http://www.w3.org/2000/svg">
<path fill-rule="evenodd" clip-rule="evenodd" d="M5.14971 4C4.9288 4 4.74971 4.17909 4.74971 4.4V12.1284V15.5001C4.74971 15.721 4.9288 15.9001 5.14971 15.9001H6.17012C6.39168 16.6625 7.11241 17.2104 7.94986 17.2104C8.7682 17.2104 9.47508 16.6872 9.71365 15.952H15.2437C15.4823 16.6872 16.1891 17.2104 17.0075 17.2104C17.8449 17.2104 18.5657 16.6625 18.7872 15.9001H19.5873C19.8082 15.9001 19.9873 15.721 19.9873 15.5001V12.1284C19.9873 12.1034 19.985 12.079 19.9806 12.0553V10.3725C19.9806 10.2602 19.9335 10.1531 19.8506 10.0773L17.1624 7.61828C17.0887 7.55083 16.9924 7.51343 16.8924 7.51343H14.5858V4.4C14.5858 4.29391 14.5436 4.19217 14.4686 4.11716C14.3936 4.04214 14.2918 4 14.1858 4H5.14971ZM9.78168 15.152H15.1757C15.3024 14.2664 16.0839 13.6001 17.0075 13.6001C17.9129 13.6001 18.6819 14.2405 18.8311 15.1001H19.1873V14.5732C19.1829 14.5495 19.1806 14.5251 19.1806 14.5001V12.5284H14.1858H5.54971V15.1001H6.12625C6.27547 14.2405 7.04445 13.6001 7.94986 13.6001C8.8734 13.6001 9.65498 14.2664 9.78168 15.152ZM14.5858 8.31343V11.7284H19.1806V10.5487L16.7371 8.31343H14.5858ZM13.7858 11.7284H5.54971V4.8H13.7858V11.7284ZM0.4 8.91807C0.179086 8.91807 0 9.09716 0 9.31807C0 9.53899 0.179086 9.71807 0.4 9.71807H3.5001C3.72101 9.71807 3.9001 9.53899 3.9001 9.31807C3.9001 9.09716 3.72101 8.91807 3.5001 8.91807H0.4ZM1.75039 11.7284C1.52947 11.7284 1.35039 11.9075 1.35039 12.1284C1.35039 12.3493 1.52947 12.5284 1.75039 12.5284H3.5001C3.72101 12.5284 3.9001 12.3493 3.9001 12.1284C3.9001 11.9075 3.72101 11.7284 3.5001 11.7284H1.75039ZM17.0075 14.4001C16.4158 14.4001 15.9577 14.8618 15.9577 15.4053C15.9577 15.9487 16.4158 16.4104 17.0075 16.4104C17.5991 16.4104 18.0572 15.9487 18.0572 15.4053C18.0572 14.8618 17.5991 14.4001 17.0075 14.4001ZM6.9001 15.4053C6.9001 14.8618 7.35822 14.4001 7.94986 14.4001C8.54151 14.4001 8.99963 14.8618 8.99963 15.4053C8.99963 15.9487 8.54151 16.4104 7.94986 16.4104C7.35822 16.4104 6.9001 15.9487 6.9001 15.4053Z" fill="#202020"/>
</svg>
