<svg width="20" height="20" viewBox="0 0 20 20" fill="none" xmlns="http://www.w3.org/2000/svg">
<path d="M7.33353 8.3999L5.2002 10.5319L7.33353 12.6666" stroke="#202020" stroke-width="0.8" stroke-miterlimit="10" stroke-linecap="round" stroke-linejoin="round"/>
<path d="M5.2002 10.5333H12.2283C12.6275 10.5333 13.0104 10.3647 13.2926 10.0646C13.5749 9.76456 13.7335 9.3576 13.7335 8.93325C13.7334 8.50895 13.5748 8.10206 13.2925 7.80204C13.0102 7.50201 12.6274 7.33339 12.2283 7.33325" stroke="#202020" stroke-width="0.8" stroke-miterlimit="10" stroke-linecap="round" stroke-linejoin="round"/>
<path d="M10 18C14.4183 18 18 14.4183 18 10C18 5.58172 14.4183 2 10 2C5.58172 2 2 5.58172 2 10C2 14.4183 5.58172 18 10 18Z" stroke="#202020" stroke-width="0.8" stroke-miterlimit="10" stroke-linecap="round" stroke-linejoin="round"/>
</svg>
